# File created by Blade
# Date/Time:  Tue Apr 07 20:45:22 2015
# Frame Rate: 120.000 fps
#------------------------------------------------------
:FULLY-SPECIFIED
:DEGREES
335
root 2.803089 33.108560 -4.608920 -2.889121 -19.129489 -33.001531
Spine 24.856877 18.367096 26.117317
Head -6.648191 -5.184881 17.154299
LeftShoulder -22.784557 40.809712 11.590520
LeftArm 53.656198 -39.532588 -87.418414
LeftForeArm 6.843543 -0.000000 26.049086
LeftHand 7.073937 -0.000000 11.384063
LeftHandThumb1 -26.253704 0.000000 33.147579
RightShoulder 0.292951 27.485774 -21.807115
RightArm 24.754194 67.586309 67.922594
RightForeArm 67.726143 -0.000000 44.732377
RightHand 2.232150 -0.000000 27.516748
RightHandThumb1 -24.326973 -0.000000 -32.862282
LeftUpLeg -1.187742 -2.219945 26.484060
LeftLeg 32.901268 -0.000000 -0.000000
LeftFoot -22.540966 19.861287 -17.810930
LeftToeBase -12.369983 -0.000000 0.000000
RightUpLeg -147.394732 -26.144957 28.221155
RightLeg 41.688940 -0.000000 -0.000000
RightFoot 42.269853 -8.342812 11.611439
RightToeBase 14.421346 -0.000000 -0.000000
336
root 2.786674 33.118248 -4.571879 -2.885154 -18.966980 -33.226148
Spine 24.578254 18.359907 26.266709
Head -6.403217 -5.389982 17.277578
LeftShoulder -22.810729 40.799522 11.669623
LeftArm 54.164666 -40.044704 -87.772694
LeftForeArm 6.761205 -0.000000 25.300096
LeftHand 7.156707 0.000000 11.013808
LeftHandThumb1 -26.253704 0.000000 33.147579
RightShoulder -0.043968 27.752070 -22.018597
RightArm 24.895700 67.959897 67.683669
RightForeArm 67.488397 0.000000 44.675835
RightHand 2.172433 0.000000 27.496846
RightHandThumb1 -24.326973 -0.000000 -32.862282
LeftUpLeg -1.177551 -2.367596 26.714345
LeftLeg 32.970634 -0.000000 -0.000000
LeftFoot -22.700698 19.780462 -18.169361
LeftToeBase -12.384132 -0.000000 0.000000
RightUpLeg -147.436865 -26.695239 28.184605
RightLeg 40.765755 -0.000000 -0.000000
RightFoot 42.251679 -8.425129 11.560424
RightToeBase 14.294546 -0.000000 -0.000000
337
root 2.772735 33.125026 -4.539528 -2.843186 -18.860644 -33.431205
Spine 24.298601 18.390409 26.403272
Head -6.172497 -5.619275 17.354430
LeftShoulder -22.762566 40.661283 11.787415
LeftArm 54.072539 -40.455244 -87.541301
LeftForeArm 6.362255 0.000000 24.812221
LeftHand 6.975242 -0.000000 10.790698
LeftHandThumb1 -26.253704 0.000000 33.147579
RightShoulder -0.317269 28.116840 -22.255996
RightArm 24.810962 68.359273 67.275995
RightForeArm 67.235516 -0.000000 44.653144
RightHand 2.205606 -0.000000 27.440283
RightHandThumb1 -24.326973 -0.000000 -32.862282
LeftUpLeg -1.209620 -2.329953 26.940680
LeftLeg 33.068374 -0.000000 -0.000000
LeftFoot -22.780291 19.751966 -18.323664
LeftToeBase -12.450499 -0.000000 0.000000
RightUpLeg -147.455257 -27.120727 28.173609
RightLeg 39.739373 -0.000000 -0.000000
RightFoot 42.161895 -8.778108 11.660961
RightToeBase 14.022268 -0.000000 -0.000000
338
root 2.760010 33.130900 -4.509655 -2.758991 -18.716732 -33.635970
Spine 23.969336 18.418126 26.520206
Head -6.001510 -5.834249 17.439268
LeftShoulder -22.765306 40.603115 11.846988
LeftArm 54.256557 -40.912352 -87.567242
LeftForeArm 6.201552 -0.000000 24.291908
LeftHand 6.839424 0.000000 10.784113
LeftHandThumb1 -26.253704 0.000000 33.147579
RightShoulder -0.607804 28.579765 -22.489598
RightArm 24.545548 68.729159 66.677519
RightForeArm 66.897726 -0.000000 44.622137
RightHand 2.206329 -0.000000 27.344151
RightHandThumb1 -24.326973 -0.000000 -32.862282
LeftUpLeg -1.276460 -2.512543 27.115953
LeftLeg 33.112963 -0.000000 -0.000000
LeftFoot -22.927081 19.886638 -18.618554
LeftToeBase -12.568711 -0.000000 0.000000
RightUpLeg -147.463338 -27.625227 28.111686
RightLeg 38.676870 -0.000000 -0.000000
RightFoot 41.963799 -9.101623 11.734682
RightToeBase 14.004414 -0.000000 -0.000000
339
root 2.751410 33.135046 -4.479286 -2.682785 -18.586197 -33.812548
Spine 23.662460 18.428882 26.619713
Head -5.830696 -5.952532 17.490252
LeftShoulder -22.844397 40.552050 11.830178
LeftArm 54.515110 -41.365604 -87.650077
LeftForeArm 6.068583 -0.000000 23.791413
LeftHand 6.718943 -0.000000 10.885807
LeftHandThumb1 -26.253704 0.000000 33.147579
RightShoulder -0.863919 28.986936 -22.717335
RightArm 24.630716 69.218415 66.373190
RightForeArm 66.325402 -0.000000 44.486242
RightHand 2.244036 -0.000000 27.483310
RightHandThumb1 -24.326973 -0.000000 -32.862282
LeftUpLeg -1.332120 -2.743002 27.250559
LeftLeg 33.157382 -0.000000 -0.000000
LeftFoot -23.061123 20.050881 -18.880007
LeftToeBase -12.705810 -0.000000 0.000000
RightUpLeg -147.482713 -28.043420 28.086618
RightLeg 37.536838 -0.000000 -0.000000
RightFoot 41.964649 -9.766015 11.801600
RightToeBase 14.091696 -0.000000 -0.000000
340
root 2.742026 33.140614 -4.447936 -2.607488 -18.452937 -34.035115
Spine 23.373446 18.420261 26.788259
Head -5.682428 -6.110383 17.453386
LeftShoulder -22.904016 40.498672 11.809389
LeftArm 54.692451 -41.833316 -87.682056
LeftForeArm 5.892791 -0.000000 23.352065
LeftHand 6.742281 -0.000000 10.714029
LeftHandThumb1 -26.253704 0.000000 33.147579
RightShoulder -1.105750 29.399698 -22.977722
RightArm 24.719265 69.727118 66.087784
RightForeArm 65.747362 -0.000000 44.396043
RightHand 2.220156 0.000000 27.007218
RightHandThumb1 -24.326973 -0.000000 -32.862282
LeftUpLeg -1.401757 -2.909384 27.453765
LeftLeg 33.241192 -0.000000 -0.000000
LeftFoot -23.172795 20.137525 -19.186041
LeftToeBase -12.824846 -0.000000 0.000000
RightUpLeg -147.472810 -28.529715 28.067319
RightLeg 36.461369 -0.000000 -0.000000
RightFoot 41.841051 -10.001896 11.786231
RightToeBase 13.927040 -0.000000 -0.000000
341
root 2.733564 33.146766 -4.410940 -2.570734 -18.313064 -34.262170
Spine 23.126216 18.412437 26.995224
Head -5.566889 -6.302003 17.423694
LeftShoulder -22.949568 40.432227 11.794485
LeftArm 54.860980 -42.282835 -87.715096
LeftForeArm 5.644587 -0.000000 22.955964
LeftHand 6.852277 -0.000000 10.729694
LeftHandThumb1 -26.253704 0.000000 33.147579
RightShoulder -1.400095 29.717572 -23.260259
RightArm 25.090578 70.248578 66.084913
RightForeArm 65.177395 0.000000 44.385299
RightHand 2.314325 0.000000 26.931458
RightHandThumb1 -24.326973 -0.000000 -32.862282
LeftUpLeg -1.433473 -3.092217 27.662869
LeftLeg 33.340417 -0.000000 -0.000000
LeftFoot -23.271327 20.186581 -19.440771
LeftToeBase -12.863302 -0.000000 0.000000
RightUpLeg -147.531058 -28.971716 28.145916
RightLeg 35.493353 -0.000000 -0.000000
RightFoot 41.722557 -10.046654 11.591936
RightToeBase 14.206893 -0.000000 -0.000000
342
root 2.724485 33.153934 -4.382194 -2.477743 -18.211391 -34.523358
Spine 22.871374 18.441288 27.236070
Head -5.462477 -6.453012 17.351974
LeftShoulder -22.984257 40.330866 11.807857
LeftArm 54.973214 -42.737014 -87.755654
LeftForeArm 5.440702 -0.000000 22.599735
LeftHand 6.859596 -0.000000 10.732828
LeftHandThumb1 -26.253704 0.000000 33.147579
RightShoulder -1.686715 30.078764 -23.553302
RightArm 25.395872 70.740807 66.047496
RightForeArm 64.709903 -0.000000 44.448310
RightHand 2.315276 -0.000000 27.347514
RightHandThumb1 -24.326973 -0.000000 -32.862282
LeftUpLeg -1.525952 -3.237125 27.923594
LeftLeg 33.492073 -0.000000 -0.000000
LeftFoot -23.365923 20.129045 -19.800394
LeftToeBase -12.878691 -0.000000 0.000000
RightUpLeg -147.464318 -29.478073 28.107697
RightLeg 34.437160 -0.000000 -0.000000
RightFoot 41.626317 -10.178585 11.405751
RightToeBase 13.983026 -0.000000 -0.000000
343
root 2.714846 33.163185 -4.357512 -2.354644 -18.120798 -34.813198
Spine 22.613930 18.493494 27.515166
Head -5.361469 -6.610875 17.233789
LeftShoulder -22.979313 40.208061 11.870246
LeftArm 55.068362 -43.223252 -87.885458
LeftForeArm 5.443842 -0.000000 22.318204
LeftHand 6.883482 -0.000000 10.536222
LeftHandThumb1 -26.253704 0.000000 33.147579
RightShoulder -1.974040 30.462402 -23.854602
RightArm 25.750368 71.260578 66.043363
RightForeArm 64.143371 -0.000000 44.485664
RightHand 2.320013 -0.000000 27.295865
RightHandThumb1 -24.326973 -0.000000 -32.862282
LeftUpLeg -1.683323 -3.218635 28.255842
LeftLeg 33.709929 -0.000000 -0.000000
LeftFoot -23.405203 19.958283 -20.196357
LeftToeBase -12.689015 -0.000000 0.000000
RightUpLeg -147.389905 -29.968830 28.076350
RightLeg 33.387621 -0.000000 -0.000000
RightFoot 41.473212 -10.401160 11.120153
RightToeBase 13.715441 -0.000000 -0.000000
344
root 2.704462 33.174348 -4.332032 -2.199548 -18.073987 -35.125752
Spine 22.346733 18.608028 27.824601
Head -5.249321 -6.779038 17.130425
LeftShoulder -22.981439 40.117697 11.937144
LeftArm 55.202682 -43.701281 -88.087752
LeftForeArm 5.551390 -0.000000 22.118621
LeftHand 6.762228 -0.000000 10.550867
LeftHandThumb1 -26.253704 0.000000 33.147579
RightShoulder -2.225542 30.810152 -24.132306
RightArm 26.076744 71.810181 66.025289
RightForeArm 63.505114 -0.000000 44.612306
RightHand 2.344986 -0.000000 26.877715
RightHandThumb1 -24.326973 -0.000000 -32.862282
LeftUpLeg -1.817904 -3.196986 28.625484
LeftLeg 33.898545 -0.000000 -0.000000
LeftFoot -23.414763 19.725265 -20.529302
LeftToeBase -12.708108 -0.000000 0.000000
RightUpLeg -147.427980 -30.220260 28.191263
RightLeg 32.403734 -0.000000 -0.000000
RightFoot 41.356387 -11.194944 10.889594
RightToeBase 13.599971 -0.000000 -0.000000
345
root 2.692720 33.187764 -4.304401 -2.027000 -18.077191 -35.514919
Spine 22.107357 18.776905 28.250018
Head -5.130212 -6.926852 16.961675
LeftShoulder -22.967574 40.043874 12.026436
LeftArm 55.370621 -44.163887 -88.348132
LeftForeArm 5.583286 0.000000 21.875946
LeftHand 6.887508 -0.000000 10.430124
LeftHandThumb1 -26.253704 0.000000 33.147579
RightShoulder -2.521720 31.109623 -24.464810
RightArm 26.525229 72.349064 66.182406
RightForeArm 62.864695 -0.000000 44.820793
RightHand 2.400961 -0.000000 26.762524
RightHandThumb1 -24.326973 -0.000000 -32.862282
LeftUpLeg -1.911896 -3.148372 29.064329
LeftLeg 34.077144 -0.000000 -0.000000
LeftFoot -23.489836 19.496872 -20.941724
LeftToeBase -12.746128 -0.000000 0.000000
RightUpLeg -147.348660 -30.647309 28.234586
RightLeg 31.481177 -0.000000 -0.000000
RightFoot 41.267757 -11.210842 10.603386
RightToeBase 13.348592 -0.000000 -0.000000
